<?xml version="1.0" encoding="UTF-8" standalone="no"?>
<svg
   xmlns:dc="http://purl.org/dc/elements/1.1/"
   xmlns:cc="http://creativecommons.org/ns#"
   xmlns:rdf="http://www.w3.org/1999/02/22-rdf-syntax-ns#"
   xmlns:svg="http://www.w3.org/2000/svg"
   xmlns="http://www.w3.org/2000/svg"
   xmlns:sodipodi="http://sodipodi.sourceforge.net/DTD/sodipodi-0.dtd"
   xmlns:inkscape="http://www.inkscape.org/namespaces/inkscape"
   inkscape:version="1.0rc1 (09960d6f05, 2020-04-09)"
   sodipodi:docname="logo.svg"
   id="svg42"
   viewBox="0 0 32 32"
   height="32"
   width="32"
   version="1.1">
  <metadata
     id="metadata48">
    <rdf:RDF>
      <cc:Work
         rdf:about="">
        <dc:format>image/svg+xml</dc:format>
        <dc:type
           rdf:resource="http://purl.org/dc/dcmitype/StillImage" />
        <dc:title></dc:title>
      </cc:Work>
    </rdf:RDF>
  </metadata>
  <defs
     id="defs46" />
  <sodipodi:namedview
     inkscape:current-layer="svg42"
     inkscape:window-maximized="1"
     inkscape:window-y="-8"
     inkscape:window-x="59"
     inkscape:cy="89.533978"
     inkscape:cx="184.32658"
     inkscape:zoom="5.6568542"
     fit-margin-bottom="0"
     fit-margin-right="0"
     fit-margin-left="0"
     fit-margin-top="0"
     inkscape:snap-page="true"
     showgrid="false"
     id="namedview44"
     inkscape:window-height="1417"
     inkscape:window-width="3373"
     inkscape:pageshadow="2"
     inkscape:pageopacity="0"
     guidetolerance="10"
     gridtolerance="10"
     objecttolerance="10"
     borderopacity="1"
     bordercolor="#666666"
     pagecolor="#ffffff" />
  <g
     transform="matrix(1.7777778,0,0,1.7777778,-5.3333334,-5.3333334)"
     id="g1021">
    <path
       id="path966"
       d="m 8.2834189,12.273 v 6.254674 l 3.3036271,-3.127337 m 0.825908,3.127337 h 1.23886 V 12.273 h -1.23886 m 2.064766,0 v 6.254674 h 1.238861 V 12.273"
       inkscape:connector-curvature="0"
       style="fill:#da2533;fill-opacity:1;stroke-width:0.429525" />
    <path
       inkscape:connector-curvature="0"
       d="M 5,3 A 2,2 0 0 0 3,5 v 14 a 2,2 0 0 0 2,2 h 14 a 2,2 0 0 0 2,-2 V 5.5 L 18.5,3 H 17 v 6 a 1,1 0 0 1 -1,1 H 8 A 1,1 0 0 1 7,9 V 3 H 5 m 7,1 v 5 h 3 V 4 h -3 m -5,8 h 10 a 1,1 0 0 1 1,1 v 6 H 6 v -6 a 1,1 0 0 1 1,-1 z"
       id="path40"
       style="fill:#103cbd;fill-opacity:1" />
    <path
       id="path1007"
       d="M 7.4520179,4.6609111 V 8.3637768 L 9.2481269,6.5123439 M 11.044236,4.6609111 V 8.3637768 H 11.55741 V 4.6609111 m -2.3092831,0 V 8.3637768 L 11.044236,6.5123439"
       inkscape:connector-curvature="0"
       style="fill:#666666;stroke-width:0.260509" />
  </g>
</svg>
